<svg id="Ebene_1" data-name="Ebene 1" xmlns="http://www.w3.org/2000/svg" viewBox="0 0 963.5 977.71"><defs><style>.cls-1{fill:#f7931e;}.cls-1,.cls-11,.cls-14,.cls-6,.cls-9{stroke:#f2f2f2;}.cls-1,.cls-11,.cls-14,.cls-16,.cls-2,.cls-3,.cls-4,.cls-6,.cls-9{stroke-miterlimit:10;}.cls-1,.cls-11{stroke-width:7px;}.cls-2,.cls-7{fill:#f2f2f2;}.cls-2,.cls-3{stroke:#000;stroke-width:0.5px;}.cls-10,.cls-11,.cls-3,.cls-6{fill:#1a1a1a;}.cls-4{fill:#ed1c24;stroke:#c1272d;}.cls-14,.cls-4{stroke-width:10px;}.cls-5{fill:#f15a24;}.cls-6{stroke-width:6px;}.cls-8{opacity:0.3;}.cls-14,.cls-16,.cls-9{fill:none;}.cls-12{fill:#dd6e00;}.cls-13{fill:#b3b3b3;}.cls-15{fill:#e6e6e6;}.cls-16{stroke:gray;stroke-width:3px;}</style></defs><title>turntable</title><rect class="cls-1" x="3.5" y="3.5" width="881.82" height="881.82"/><circle class="cls-2" cx="444.41" cy="444.41" r="314.19"/><circle class="cls-3" cx="444.41" cy="444.41" r="301.13"/><circle class="cls-4" cx="445.06" cy="445.06" r="70.55"/><circle class="cls-5" cx="444.41" cy="444.41" r="54.22"/><circle class="cls-6" cx="445.06" cy="443.76" r="23.52"/><circle class="cls-7" cx="73.39" cy="81.23" r="49.64"/><g class="cls-8"><circle class="cls-9" cx="444.41" cy="445.72" r="82.3"/><circle class="cls-9" cx="444.37" cy="445.68" r="95.69"/><circle class="cls-9" cx="444.33" cy="445.64" r="109.08"/><circle class="cls-9" cx="444.29" cy="445.59" r="122.48"/><circle class="cls-9" cx="444.25" cy="445.55" r="135.87"/><circle class="cls-9" cx="444.21" cy="445.51" r="149.26"/><circle class="cls-9" cx="444.17" cy="445.47" r="162.65"/><circle class="cls-9" cx="444.12" cy="445.43" r="176.04"/><circle class="cls-9" cx="444.08" cy="445.39" r="189.43"/><circle class="cls-9" cx="444.04" cy="445.35" r="202.82"/><circle class="cls-9" cx="444" cy="445.31" r="216.21"/><circle class="cls-9" cx="443.96" cy="445.27" r="229.6"/><circle class="cls-9" cx="443.92" cy="445.23" r="242.99"/><circle class="cls-9" cx="443.88" cy="445.19" r="256.38"/><circle class="cls-9" cx="443.84" cy="445.15" r="269.77"/><circle class="cls-9" cx="443.8" cy="445.1" r="283.16"/><circle class="cls-9" cx="443.76" cy="445.06" r="296.55"/></g><circle class="cls-10" cx="73.39" cy="81.23" r="24.82"/><circle class="cls-11" cx="798.45" cy="795.83" r="67.93"/><circle class="cls-7" cx="635.35" cy="79.72" r="31.56"/><circle class="cls-10" cx="635.35" cy="79.72" r="24.62"/><circle class="cls-7" cx="713.41" cy="79.72" r="31.56"/><circle class="cls-7" cx="786.49" cy="79.72" r="31.56"/><rect class="cls-12" x="269.35" y="820.65" width="351.42" height="27.43"/><rect class="cls-7" x="342.03" y="839.25" width="71.85" height="24.82" transform="translate(-490.2 1212.33) rotate(-90)"/><rect class="cls-6" x="34.2" y="798.45" width="143.07" height="73.16"/><rect class="cls-13" x="605.51" y="297.73" width="32.79" height="68.32" transform="translate(-77.99 487.5) rotate(-42.28)"/><path class="cls-14" d="M607.26,316.81,696.55,415a59.81,59.81,0,0,1,15.5,43.1L702.24,665a59.87,59.87,0,0,0,15.51,43.11l84.63,93.06,133,146.25" transform="translate(-16.5 -17.29)"/><rect class="cls-13" x="893.26" y="876.44" width="54.96" height="114.51" transform="translate(-405.14 845.14) rotate(-42.28)"/><rect class="cls-15" x="925.66" y="959.63" width="54.96" height="19.4" transform="translate(-420.68 876.21) rotate(-42.28)"/><circle class="cls-13" cx="799.1" cy="795.18" r="38.54"/><circle class="cls-10" cx="713.73" cy="79.72" r="24.62"/><circle class="cls-10" cx="786.89" cy="79.72" r="24.62"/><line class="cls-16" x1="635.15" y1="79.92" x2="659.97" y2="79.92"/><line class="cls-16" x1="714.18" y1="79.27" x2="733.27" y2="64.75"/><line class="cls-16" x1="787.34" y1="79.27" x2="803.78" y2="97.63"/><polyline class="cls-16" points="445.06 836.98 445.06 805.63 445.06 860.5"/></svg>